<?xml version="1.0" encoding="utf-8"?>
<!-- Generator: Adobe Illustrator 23.1.0, SVG Export Plug-In . SVG Version: 6.00 Build 0)  -->
<svg version="1.1" id="Layer_1" xmlns="http://www.w3.org/2000/svg" xmlns:xlink="http://www.w3.org/1999/xlink" x="0px" y="0px"
	 viewBox="0 0 100 100" style="enable-background:new 0 0 100 100;" xml:space="preserve">
<g>
	<path d="M49,98.7c-0.5-0.1-0.9-0.2-1.4-0.3c-1.9-0.4-3.5-1.4-4.9-2.8c0,0-0.1-0.1-0.1-0.1c-9-9-18-17.9-26.9-26.9
		C11.8,64.8,8.1,61,4.2,57.2c-3.9-3.8-3.8-10.7,0-14.5C9.7,37.5,15,32.1,20.3,26.7C26,21,31.8,15.3,37.5,9.5
		c1.7-1.7,3.5-3.5,5.2-5.2c5.5-5.5,14.6-3.3,17,4c1.3,4,0.4,7.6-2.6,10.6c-3.3,3.3-6.6,6.6-9.9,9.8c-3.9,3.9-7.8,7.8-11.7,11.7
		c-0.9,0.9-1.9,1.9-2.7,2.9c-3.5,4-3.2,9.9,0.6,13.7c3.1,3.2,6.3,6.2,9.4,9.5c4.1,4.4,10.9,3.5,14.4,0c1.8-1.8,3.6-3.7,5.5-5.4
		c5.9-5.2,15.2-1.3,16.5,5.5c0.7,3.7,0,7-2.8,9.7c-4.3,4.3-8.6,8.6-12.9,12.9c-2.1,2.1-4.2,4.2-6.3,6.3c-1.7,1.7-3.7,2.6-6.1,2.9
		c-0.1,0-0.2,0.1-0.3,0.1C50.2,98.7,49.6,98.7,49,98.7z"/>
	<path d="M98.7,50.9c-0.1,0.6-0.2,1.3-0.4,1.9c-1.2,4.3-4.3,6.6-8.6,7.4c-3.1,0.6-5.8-0.5-8.1-2.6c-1.7-1.5-3.3-3.2-4.9-4.8
		c-2.2-2.1-4.8-3.4-7.9-3.2c-2.8,0.1-5.1,1.3-7,3.2c-1.7,1.6-3.3,3.3-5,4.9c-3,2.7-6.4,3.3-10.2,2c-3.7-1.3-6-4-6.7-7.8
		c-0.7-3.6,0.4-6.8,3-9.4c5.6-5.6,11.2-11.2,16.8-16.8c1-1,2-2,3.1-2.9c3.5-2.8,8.2-3.1,11.7-0.9c0.8,0.5,1.5,1.2,2.2,1.8
		c5.2,5.2,10.5,10.4,15.7,15.6c1.2,1.2,2.3,2.4,3.5,3.5c1.7,1.6,2.5,3.7,2.8,6c0,0.2,0.1,0.3,0.1,0.5C98.7,49.9,98.7,50.4,98.7,50.9
		z"/>
</g>
</svg>
